<svg width="268" height="223" viewBox="0 0 268 223" fill="none" xmlns="http://www.w3.org/2000/svg">
<path d="M2.176 23V0.599998H6.272L16.8 16.376V0.599998H20.896V23H16.8L6.272 7.256V23H2.176ZM30.6145 23.384C29.2492 23.384 28.1292 23.1707 27.2545 22.744C26.3798 22.296 25.7292 21.7093 25.3025 20.984C24.8758 20.2587 24.6625 19.4587 24.6625 18.584C24.6625 17.112 25.2385 15.9173 26.3905 15C27.5425 14.0827 29.2705 13.624 31.5745 13.624H35.6065V13.24C35.6065 12.152 35.2972 11.352 34.6785 10.84C34.0598 10.328 33.2918 10.072 32.3745 10.072C31.5425 10.072 30.8172 10.2747 30.1985 10.68C29.5798 11.064 29.1958 11.64 29.0465 12.408H25.0465C25.1532 11.256 25.5372 10.2533 26.1985 9.4C26.8812 8.54667 27.7558 7.896 28.8225 7.448C29.8892 6.97867 31.0838 6.744 32.4065 6.744C34.6678 6.744 36.4492 7.30933 37.7505 8.44C39.0518 9.57067 39.7025 11.1707 39.7025 13.24V23H36.2145L35.8305 20.44C35.3612 21.2933 34.6998 21.9973 33.8465 22.552C33.0145 23.1067 31.9372 23.384 30.6145 23.384ZM31.5425 20.184C32.7158 20.184 33.6225 19.8 34.2625 19.032C34.9238 18.264 35.3398 17.3147 35.5105 16.184H32.0225C30.9345 16.184 30.1558 16.3867 29.6865 16.792C29.2172 17.176 28.9825 17.656 28.9825 18.232C28.9825 18.8507 29.2172 19.3307 29.6865 19.672C30.1558 20.0133 30.7745 20.184 31.5425 20.184ZM43.6113 23V7.128H47.2273L47.5793 9.272C48.0913 8.504 48.7633 7.896 49.5953 7.448C50.4486 6.97867 51.4299 6.744 52.5393 6.744C54.9926 6.744 56.7313 7.69333 57.7553 9.592C58.3313 8.71733 59.0993 8.024 60.0593 7.512C61.0406 7 62.1073 6.744 63.2593 6.744C65.3286 6.744 66.9179 7.36267 68.0273 8.6C69.1366 9.83733 69.6913 11.6507 69.6913 14.04V23H65.5953V14.424C65.5953 13.0587 65.3286 12.0133 64.7953 11.288C64.2833 10.5627 63.4833 10.2 62.3953 10.2C61.2859 10.2 60.3899 10.6053 59.7073 11.416C59.0459 12.2267 58.7153 13.3573 58.7153 14.808V23H54.6193V14.424C54.6193 13.0587 54.3526 12.0133 53.8193 11.288C53.2859 10.5627 52.4646 10.2 51.3553 10.2C50.2673 10.2 49.3819 10.6053 48.6993 11.416C48.0379 12.2267 47.7073 13.3573 47.7073 14.808V23H43.6113ZM79.052 23.384C77.6867 23.384 76.5667 23.1707 75.692 22.744C74.8173 22.296 74.1667 21.7093 73.74 20.984C73.3133 20.2587 73.1 19.4587 73.1 18.584C73.1 17.112 73.676 15.9173 74.828 15C75.98 14.0827 77.708 13.624 80.012 13.624H84.044V13.24C84.044 12.152 83.7347 11.352 83.116 10.84C82.4973 10.328 81.7293 10.072 80.812 10.072C79.98 10.072 79.2547 10.2747 78.636 10.68C78.0173 11.064 77.6333 11.64 77.484 12.408H73.484C73.5907 11.256 73.9747 10.2533 74.636 9.4C75.3187 8.54667 76.1933 7.896 77.26 7.448C78.3267 6.97867 79.5213 6.744 80.844 6.744C83.1053 6.744 84.8867 7.30933 86.188 8.44C87.4893 9.57067 88.14 11.1707 88.14 13.24V23H84.652L84.268 20.44C83.7987 21.2933 83.1373 21.9973 82.284 22.552C81.452 23.1067 80.3747 23.384 79.052 23.384ZM79.98 20.184C81.1533 20.184 82.06 19.8 82.7 19.032C83.3613 18.264 83.7773 17.3147 83.948 16.184H80.46C79.372 16.184 78.5933 16.3867 78.124 16.792C77.6547 17.176 77.42 17.656 77.42 18.232C77.42 18.8507 77.6547 19.3307 78.124 19.672C78.5933 20.0133 79.212 20.184 79.98 20.184ZM93.8088 23.224C93.0621 23.224 92.4434 22.9893 91.9528 22.52C91.4834 22.0507 91.2488 21.4853 91.2488 20.824C91.2488 20.1413 91.4834 19.5653 91.9528 19.096C92.4434 18.6267 93.0621 18.392 93.8088 18.392C94.5554 18.392 95.1634 18.6267 95.6328 19.096C96.1234 19.5653 96.3688 20.1413 96.3688 20.824C96.3688 21.4853 96.1234 22.0507 95.6328 22.52C95.1634 22.9893 94.5554 23.224 93.8088 23.224ZM93.8088 11.576C93.0621 11.576 92.4434 11.3413 91.9528 10.872C91.4834 10.4027 91.2488 9.83733 91.2488 9.176C91.2488 8.49333 91.4834 7.91733 91.9528 7.448C92.4434 6.97867 93.0621 6.744 93.8088 6.744C94.5554 6.744 95.1634 6.97867 95.6328 7.448C96.1234 7.91733 96.3688 8.49333 96.3688 9.176C96.3688 9.83733 96.1234 10.4027 95.6328 10.872C95.1634 11.3413 94.5554 11.576 93.8088 11.576ZM101.559 23.224C100.812 23.224 100.193 22.9893 99.7028 22.52C99.2334 22.0507 98.9988 21.4853 98.9988 20.824C98.9988 20.1413 99.2334 19.5653 99.7028 19.096C100.193 18.6267 100.812 18.392 101.559 18.392C102.305 18.392 102.913 18.6267 103.383 19.096C103.873 19.5653 104.119 20.1413 104.119 20.824C104.119 21.4853 103.873 22.0507 103.383 22.52C102.913 22.9893 102.305 23.224 101.559 23.224ZM109.246 23.224C108.5 23.224 107.881 22.9893 107.39 22.52C106.921 22.0507 106.686 21.4853 106.686 20.824C106.686 20.1413 106.921 19.5653 107.39 19.096C107.881 18.6267 108.5 18.392 109.246 18.392C109.993 18.392 110.601 18.6267 111.07 19.096C111.561 19.5653 111.806 20.1413 111.806 20.824C111.806 21.4853 111.561 22.0507 111.07 22.52C110.601 22.9893 109.993 23.224 109.246 23.224ZM116.934 23.224C116.187 23.224 115.568 22.9893 115.078 22.52C114.608 22.0507 114.374 21.4853 114.374 20.824C114.374 20.1413 114.608 19.5653 115.078 19.096C115.568 18.6267 116.187 18.392 116.934 18.392C117.68 18.392 118.288 18.6267 118.758 19.096C119.248 19.5653 119.494 20.1413 119.494 20.824C119.494 21.4853 119.248 22.0507 118.758 22.52C118.288 22.9893 117.68 23.224 116.934 23.224ZM9.152 71C7.488 71 6.15467 70.5947 5.152 69.784C4.14933 68.9733 3.648 67.5333 3.648 65.464V58.552H0.928V55.128H3.648L4.128 50.872H7.744V55.128H12.032V58.552H7.744V65.496C7.744 66.264 7.904 66.7973 8.224 67.096C8.56533 67.3733 9.14133 67.512 9.952 67.512H11.936V71H9.152ZM21.0208 71.384C19.6554 71.384 18.5354 71.1707 17.6608 70.744C16.7861 70.296 16.1354 69.7093 15.7088 68.984C15.2821 68.2587 15.0688 67.4587 15.0688 66.584C15.0688 65.112 15.6448 63.9173 16.7968 63C17.9488 62.0827 19.6768 61.624 21.9808 61.624H26.0128V61.24C26.0128 60.152 25.7034 59.352 25.0848 58.84C24.4661 58.328 23.6981 58.072 22.7808 58.072C21.9488 58.072 21.2234 58.2747 20.6048 58.68C19.9861 59.064 19.6021 59.64 19.4528 60.408H15.4528C15.5594 59.256 15.9434 58.2533 16.6048 57.4C17.2874 56.5467 18.1621 55.896 19.2288 55.448C20.2954 54.9787 21.4901 54.744 22.8128 54.744C25.0741 54.744 26.8554 55.3093 28.1568 56.44C29.4581 57.5707 30.1088 59.1707 30.1088 61.24V71H26.6208L26.2368 68.44C25.7674 69.2933 25.1061 69.9973 24.2528 70.552C23.4208 71.1067 22.3434 71.384 21.0208 71.384ZM21.9488 68.184C23.1221 68.184 24.0288 67.8 24.6688 67.032C25.3301 66.264 25.7461 65.3147 25.9168 64.184H22.4288C21.3408 64.184 20.5621 64.3867 20.0928 64.792C19.6234 65.176 19.3888 65.656 19.3888 66.232C19.3888 66.8507 19.6234 67.3307 20.0928 67.672C20.5621 68.0133 21.1808 68.184 21.9488 68.184ZM34.0175 71V55.128H37.6335L37.9535 57.816C38.4442 56.8773 39.1482 56.1307 40.0655 55.576C41.0042 55.0213 42.1028 54.744 43.3615 54.744C45.3242 54.744 46.8495 55.3627 47.9375 56.6C49.0255 57.8373 49.5695 59.6507 49.5695 62.04V71H45.4735V62.424C45.4735 61.0587 45.1962 60.0133 44.6415 59.288C44.0868 58.5627 43.2228 58.2 42.0495 58.2C40.8975 58.2 39.9482 58.6053 39.2015 59.416C38.4762 60.2267 38.1135 61.3573 38.1135 62.808V71H34.0175ZM60.2063 66.264C59.4383 66.264 58.7236 66.1787 58.0623 66.008L56.8783 67.192C57.2409 67.384 57.7316 67.544 58.3503 67.672C58.9689 67.8 59.9716 67.928 61.3583 68.056C63.4703 68.248 65.0063 68.7493 65.9663 69.56C66.9263 70.3707 67.4062 71.4907 67.4062 72.92C67.4062 73.8587 67.1503 74.744 66.6383 75.576C66.1263 76.4293 65.3369 77.112 64.2703 77.624C63.2036 78.1573 61.8383 78.424 60.1743 78.424C57.9129 78.424 56.0889 77.9973 54.7023 77.144C53.3156 76.312 52.6223 75.0533 52.6223 73.368C52.6223 71.9387 53.3156 70.7013 54.7023 69.656C54.2756 69.464 53.9023 69.2613 53.5823 69.048C53.2836 68.8347 53.0169 68.6107 52.7823 68.376V67.64L55.5663 64.696C54.3289 63.608 53.7103 62.2107 53.7103 60.504C53.7103 59.4373 53.9663 58.4667 54.4783 57.592C55.0116 56.7173 55.7583 56.024 56.7183 55.512C57.6783 55 58.8409 54.744 60.2063 54.744C61.1023 54.744 61.9343 54.872 62.7023 55.128H68.7183V57.624L65.9983 57.816C66.4249 58.6267 66.6383 59.5227 66.6383 60.504C66.6383 61.5707 66.3823 62.5413 65.8703 63.416C65.3583 64.2907 64.6116 64.984 63.6303 65.496C62.6703 66.008 61.5289 66.264 60.2063 66.264ZM60.2063 63.128C61.0383 63.128 61.7209 62.904 62.2543 62.456C62.8089 62.008 63.0863 61.368 63.0863 60.536C63.0863 59.704 62.8089 59.064 62.2543 58.616C61.7209 58.168 61.0383 57.944 60.2063 57.944C59.3316 57.944 58.6276 58.168 58.0943 58.616C57.5609 59.064 57.2943 59.704 57.2943 60.536C57.2943 61.368 57.5609 62.008 58.0943 62.456C58.6276 62.904 59.3316 63.128 60.2063 63.128ZM56.3663 72.952C56.3663 73.7413 56.7289 74.328 57.4543 74.712C58.2009 75.1173 59.1076 75.32 60.1743 75.32C61.1983 75.32 62.0303 75.1067 62.6703 74.68C63.3103 74.2747 63.6303 73.72 63.6303 73.016C63.6303 72.44 63.4169 71.96 62.9903 71.576C62.5849 71.192 61.7636 70.9573 60.5263 70.872C59.6516 70.808 58.8409 70.712 58.0943 70.584C57.4756 70.9253 57.0276 71.2987 56.7503 71.704C56.4943 72.1093 56.3663 72.5253 56.3663 72.952ZM78.425 66.264C77.657 66.264 76.9423 66.1787 76.281 66.008L75.097 67.192C75.4597 67.384 75.9503 67.544 76.569 67.672C77.1877 67.8 78.1903 67.928 79.577 68.056C81.689 68.248 83.225 68.7493 84.185 69.56C85.145 70.3707 85.625 71.4907 85.625 72.92C85.625 73.8587 85.369 74.744 84.857 75.576C84.345 76.4293 83.5557 77.112 82.489 77.624C81.4223 78.1573 80.057 78.424 78.393 78.424C76.1317 78.424 74.3077 77.9973 72.921 77.144C71.5343 76.312 70.841 75.0533 70.841 73.368C70.841 71.9387 71.5343 70.7013 72.921 69.656C72.4943 69.464 72.121 69.2613 71.801 69.048C71.5023 68.8347 71.2357 68.6107 71.001 68.376V67.64L73.785 64.696C72.5477 63.608 71.929 62.2107 71.929 60.504C71.929 59.4373 72.185 58.4667 72.697 57.592C73.2303 56.7173 73.977 56.024 74.937 55.512C75.897 55 77.0597 54.744 78.425 54.744C79.321 54.744 80.153 54.872 80.921 55.128H86.937V57.624L84.217 57.816C84.6437 58.6267 84.857 59.5227 84.857 60.504C84.857 61.5707 84.601 62.5413 84.089 63.416C83.577 64.2907 82.8303 64.984 81.849 65.496C80.889 66.008 79.7477 66.264 78.425 66.264ZM78.425 63.128C79.257 63.128 79.9397 62.904 80.473 62.456C81.0277 62.008 81.305 61.368 81.305 60.536C81.305 59.704 81.0277 59.064 80.473 58.616C79.9397 58.168 79.257 57.944 78.425 57.944C77.5503 57.944 76.8463 58.168 76.313 58.616C75.7797 59.064 75.513 59.704 75.513 60.536C75.513 61.368 75.7797 62.008 76.313 62.456C76.8463 62.904 77.5503 63.128 78.425 63.128ZM74.585 72.952C74.585 73.7413 74.9477 74.328 75.673 74.712C76.4197 75.1173 77.3263 75.32 78.393 75.32C79.417 75.32 80.249 75.1067 80.889 74.68C81.529 74.2747 81.849 73.72 81.849 73.016C81.849 72.44 81.6357 71.96 81.209 71.576C80.8037 71.192 79.9823 70.9573 78.745 70.872C77.8703 70.808 77.0597 70.712 76.313 70.584C75.6943 70.9253 75.2463 71.2987 74.969 71.704C74.713 72.1093 74.585 72.5253 74.585 72.952ZM95.3958 71.384C94.0304 71.384 92.9104 71.1707 92.0358 70.744C91.1611 70.296 90.5104 69.7093 90.0838 68.984C89.6571 68.2587 89.4438 67.4587 89.4438 66.584C89.4438 65.112 90.0198 63.9173 91.1718 63C92.3238 62.0827 94.0518 61.624 96.3558 61.624H100.388V61.24C100.388 60.152 100.078 59.352 99.4598 58.84C98.8411 58.328 98.0731 58.072 97.1558 58.072C96.3238 58.072 95.5984 58.2747 94.9798 58.68C94.3611 59.064 93.9771 59.64 93.8278 60.408H89.8278C89.9344 59.256 90.3184 58.2533 90.9798 57.4C91.6624 56.5467 92.5371 55.896 93.6038 55.448C94.6704 54.9787 95.8651 54.744 97.1878 54.744C99.4491 54.744 101.23 55.3093 102.532 56.44C103.833 57.5707 104.484 59.1707 104.484 61.24V71H100.996L100.612 68.44C100.142 69.2933 99.4811 69.9973 98.6278 70.552C97.7958 71.1067 96.7184 71.384 95.3958 71.384ZM96.3238 68.184C97.4971 68.184 98.4038 67.8 99.0438 67.032C99.7051 66.264 100.121 65.3147 100.292 64.184H96.8038C95.7158 64.184 94.9371 64.3867 94.4678 64.792C93.9984 65.176 93.7638 65.656 93.7638 66.232C93.7638 66.8507 93.9984 67.3307 94.4678 67.672C94.9371 68.0133 95.5558 68.184 96.3238 68.184ZM108.393 71V47.96H112.489V71H108.393ZM124.299 71V47.96H128.395V71H124.299ZM138.052 71.384C136.687 71.384 135.567 71.1707 134.692 70.744C133.817 70.296 133.167 69.7093 132.74 68.984C132.313 68.2587 132.1 67.4587 132.1 66.584C132.1 65.112 132.676 63.9173 133.828 63C134.98 62.0827 136.708 61.624 139.012 61.624H143.044V61.24C143.044 60.152 142.735 59.352 142.116 58.84C141.497 58.328 140.729 58.072 139.812 58.072C138.98 58.072 138.255 58.2747 137.636 58.68C137.017 59.064 136.633 59.64 136.484 60.408H132.484C132.591 59.256 132.975 58.2533 133.636 57.4C134.319 56.5467 135.193 55.896 136.26 55.448C137.327 54.9787 138.521 54.744 139.844 54.744C142.105 54.744 143.887 55.3093 145.188 56.44C146.489 57.5707 147.14 59.1707 147.14 61.24V71H143.652L143.268 68.44C142.799 69.2933 142.137 69.9973 141.284 70.552C140.452 71.1067 139.375 71.384 138.052 71.384ZM138.98 68.184C140.153 68.184 141.06 67.8 141.7 67.032C142.361 66.264 142.777 65.3147 142.948 64.184H139.46C138.372 64.184 137.593 64.3867 137.124 64.792C136.655 65.176 136.42 65.656 136.42 66.232C136.42 66.8507 136.655 67.3307 137.124 67.672C137.593 68.0133 138.212 68.184 138.98 68.184ZM151.049 71V47.96H155.145V57.56C155.678 56.6853 156.393 56.0027 157.289 55.512C158.206 55 159.251 54.744 160.425 54.744C162.387 54.744 163.902 55.3627 164.969 56.6C166.057 57.8373 166.601 59.6507 166.601 62.04V71H162.537V62.424C162.537 61.0587 162.259 60.0133 161.705 59.288C161.171 58.5627 160.318 58.2 159.145 58.2C157.993 58.2 157.033 58.6053 156.265 59.416C155.518 60.2267 155.145 61.3573 155.145 62.808V71H151.049ZM172.726 52.664C171.979 52.664 171.36 52.44 170.87 51.992C170.4 51.544 170.166 50.9787 170.166 50.296C170.166 49.6133 170.4 49.0587 170.87 48.632C171.36 48.184 171.979 47.96 172.726 47.96C173.472 47.96 174.08 48.184 174.55 48.632C175.04 49.0587 175.286 49.6133 175.286 50.296C175.286 50.9787 175.04 51.544 174.55 51.992C174.08 52.44 173.472 52.664 172.726 52.664ZM170.678 71V55.128H174.774V71H170.678ZM179.049 71V55.128H182.697L183.081 58.104C183.657 57.08 184.435 56.2693 185.417 55.672C186.419 55.0533 187.593 54.744 188.937 54.744V59.064H187.785C186.889 59.064 186.089 59.2027 185.385 59.48C184.681 59.7573 184.126 60.2373 183.721 60.92C183.337 61.6027 183.145 62.552 183.145 63.768V71H179.049ZM193.778 71.224C193.031 71.224 192.412 70.9893 191.922 70.52C191.452 70.0507 191.218 69.4853 191.218 68.824C191.218 68.1413 191.452 67.5653 191.922 67.096C192.412 66.6267 193.031 66.392 193.778 66.392C194.524 66.392 195.132 66.6267 195.602 67.096C196.092 67.5653 196.338 68.1413 196.338 68.824C196.338 69.4853 196.092 70.0507 195.602 70.52C195.132 70.9893 194.524 71.224 193.778 71.224ZM193.778 59.576C193.031 59.576 192.412 59.3413 191.922 58.872C191.452 58.4027 191.218 57.8373 191.218 57.176C191.218 56.4933 191.452 55.9173 191.922 55.448C192.412 54.9787 193.031 54.744 193.778 54.744C194.524 54.744 195.132 54.9787 195.602 55.448C196.092 55.9173 196.338 56.4933 196.338 57.176C196.338 57.8373 196.092 58.4027 195.602 58.872C195.132 59.3413 194.524 59.576 193.778 59.576ZM201.528 71.224C200.781 71.224 200.162 70.9893 199.672 70.52C199.202 70.0507 198.968 69.4853 198.968 68.824C198.968 68.1413 199.202 67.5653 199.672 67.096C200.162 66.6267 200.781 66.392 201.528 66.392C202.274 66.392 202.882 66.6267 203.352 67.096C203.842 67.5653 204.088 68.1413 204.088 68.824C204.088 69.4853 203.842 70.0507 203.352 70.52C202.882 70.9893 202.274 71.224 201.528 71.224ZM209.215 71.224C208.468 71.224 207.85 70.9893 207.359 70.52C206.89 70.0507 206.655 69.4853 206.655 68.824C206.655 68.1413 206.89 67.5653 207.359 67.096C207.85 66.6267 208.468 66.392 209.215 66.392C209.962 66.392 210.57 66.6267 211.039 67.096C211.53 67.5653 211.775 68.1413 211.775 68.824C211.775 69.4853 211.53 70.0507 211.039 70.52C210.57 70.9893 209.962 71.224 209.215 71.224ZM216.903 71.224C216.156 71.224 215.537 70.9893 215.047 70.52C214.577 70.0507 214.343 69.4853 214.343 68.824C214.343 68.1413 214.577 67.5653 215.047 67.096C215.537 66.6267 216.156 66.392 216.903 66.392C217.649 66.392 218.257 66.6267 218.727 67.096C219.217 67.5653 219.463 68.1413 219.463 68.824C219.463 69.4853 219.217 70.0507 218.727 70.52C218.257 70.9893 217.649 71.224 216.903 71.224ZM0.736 119L8.928 96.6H13.536L21.728 119H17.376L15.584 113.816H6.848L5.024 119H0.736ZM7.968 110.616H14.464L11.2 101.304L7.968 110.616ZM24.5175 119V95.96H28.6135V119H24.5175ZM38.2708 119.384C36.9054 119.384 35.7854 119.171 34.9108 118.744C34.0361 118.296 33.3854 117.709 32.9588 116.984C32.5321 116.259 32.3188 115.459 32.3188 114.584C32.3188 113.112 32.8948 111.917 34.0468 111C35.1988 110.083 36.9268 109.624 39.2308 109.624H43.2628V109.24C43.2628 108.152 42.9534 107.352 42.3348 106.84C41.7161 106.328 40.9481 106.072 40.0308 106.072C39.1988 106.072 38.4734 106.275 37.8548 106.68C37.2361 107.064 36.8521 107.64 36.7028 108.408H32.7028C32.8094 107.256 33.1934 106.253 33.8548 105.4C34.5374 104.547 35.4121 103.896 36.4788 103.448C37.5454 102.979 38.7401 102.744 40.0628 102.744C42.3241 102.744 44.1054 103.309 45.4068 104.44C46.7081 105.571 47.3588 107.171 47.3588 109.24V119H43.8708L43.4868 116.44C43.0174 117.293 42.3561 117.997 41.5028 118.552C40.6708 119.107 39.5934 119.384 38.2708 119.384ZM39.1988 116.184C40.3721 116.184 41.2788 115.8 41.9188 115.032C42.5801 114.264 42.9961 113.315 43.1668 112.184H39.6788C38.5908 112.184 37.8121 112.387 37.3428 112.792C36.8734 113.176 36.6388 113.656 36.6388 114.232C36.6388 114.851 36.8734 115.331 37.3428 115.672C37.8121 116.013 38.4308 116.184 39.1988 116.184ZM51.2675 119V103.128H54.8835L55.2355 105.272C55.7475 104.504 56.4195 103.896 57.2515 103.448C58.1048 102.979 59.0862 102.744 60.1955 102.744C62.6488 102.744 64.3875 103.693 65.4115 105.592C65.9875 104.717 66.7555 104.024 67.7155 103.512C68.6968 103 69.7635 102.744 70.9155 102.744C72.9848 102.744 74.5742 103.363 75.6835 104.6C76.7928 105.837 77.3475 107.651 77.3475 110.04V119H73.2515V110.424C73.2515 109.059 72.9848 108.013 72.4515 107.288C71.9395 106.563 71.1395 106.2 70.0515 106.2C68.9422 106.2 68.0462 106.605 67.3635 107.416C66.7022 108.227 66.3715 109.357 66.3715 110.808V119H62.2755V110.424C62.2755 109.059 62.0088 108.013 61.4755 107.288C60.9422 106.563 60.1208 106.2 59.0115 106.2C57.9235 106.2 57.0382 106.605 56.3555 107.416C55.6942 108.227 55.3635 109.357 55.3635 110.808V119H51.2675ZM86.7083 119.384C85.3429 119.384 84.2229 119.171 83.3483 118.744C82.4736 118.296 81.8229 117.709 81.3963 116.984C80.9696 116.259 80.7563 115.459 80.7563 114.584C80.7563 113.112 81.3323 111.917 82.4843 111C83.6363 110.083 85.3643 109.624 87.6683 109.624H91.7003V109.24C91.7003 108.152 91.3909 107.352 90.7723 106.84C90.1536 106.328 89.3856 106.072 88.4683 106.072C87.6363 106.072 86.9109 106.275 86.2923 106.68C85.6736 107.064 85.2896 107.64 85.1403 108.408H81.1403C81.2469 107.256 81.6309 106.253 82.2923 105.4C82.9749 104.547 83.8496 103.896 84.9163 103.448C85.9829 102.979 87.1776 102.744 88.5003 102.744C90.7616 102.744 92.5429 103.309 93.8443 104.44C95.1456 105.571 95.7963 107.171 95.7963 109.24V119H92.3083L91.9243 116.44C91.4549 117.293 90.7936 117.997 89.9403 118.552C89.1083 119.107 88.0309 119.384 86.7083 119.384ZM87.6363 116.184C88.8096 116.184 89.7163 115.8 90.3563 115.032C91.0176 114.264 91.4336 113.315 91.6043 112.184H88.1163C87.0283 112.184 86.2496 112.387 85.7803 112.792C85.3109 113.176 85.0763 113.656 85.0763 114.232C85.0763 114.851 85.3109 115.331 85.7803 115.672C86.2496 116.013 86.8683 116.184 87.6363 116.184ZM106.558 119C104.894 119 103.561 118.595 102.558 117.784C101.556 116.973 101.054 115.533 101.054 113.464V106.552H98.3343V103.128H101.054L101.534 98.872H105.15V103.128H109.438V106.552H105.15V113.496C105.15 114.264 105.31 114.797 105.63 115.096C105.972 115.373 106.548 115.512 107.358 115.512H109.342V119H106.558ZM114.715 119.224C113.968 119.224 113.35 118.989 112.859 118.52C112.39 118.051 112.155 117.485 112.155 116.824C112.155 116.141 112.39 115.565 112.859 115.096C113.35 114.627 113.968 114.392 114.715 114.392C115.462 114.392 116.07 114.627 116.539 115.096C117.03 115.565 117.275 116.141 117.275 116.824C117.275 117.485 117.03 118.051 116.539 118.52C116.07 118.989 115.462 119.224 114.715 119.224ZM114.715 107.576C113.968 107.576 113.35 107.341 112.859 106.872C112.39 106.403 112.155 105.837 112.155 105.176C112.155 104.493 112.39 103.917 112.859 103.448C113.35 102.979 113.968 102.744 114.715 102.744C115.462 102.744 116.07 102.979 116.539 103.448C117.03 103.917 117.275 104.493 117.275 105.176C117.275 105.837 117.03 106.403 116.539 106.872C116.07 107.341 115.462 107.576 114.715 107.576ZM122.465 119.224C121.718 119.224 121.1 118.989 120.609 118.52C120.14 118.051 119.905 117.485 119.905 116.824C119.905 116.141 120.14 115.565 120.609 115.096C121.1 114.627 121.718 114.392 122.465 114.392C123.212 114.392 123.82 114.627 124.289 115.096C124.78 115.565 125.025 116.141 125.025 116.824C125.025 117.485 124.78 118.051 124.289 118.52C123.82 118.989 123.212 119.224 122.465 119.224ZM130.153 119.224C129.406 119.224 128.787 118.989 128.297 118.52C127.827 118.051 127.593 117.485 127.593 116.824C127.593 116.141 127.827 115.565 128.297 115.096C128.787 114.627 129.406 114.392 130.153 114.392C130.899 114.392 131.507 114.627 131.977 115.096C132.467 115.565 132.713 116.141 132.713 116.824C132.713 117.485 132.467 118.051 131.977 118.52C131.507 118.989 130.899 119.224 130.153 119.224ZM137.84 119.224C137.093 119.224 136.475 118.989 135.984 118.52C135.515 118.051 135.28 117.485 135.28 116.824C135.28 116.141 135.515 115.565 135.984 115.096C136.475 114.627 137.093 114.392 137.84 114.392C138.587 114.392 139.195 114.627 139.664 115.096C140.155 115.565 140.4 116.141 140.4 116.824C140.4 117.485 140.155 118.051 139.664 118.52C139.195 118.989 138.587 119.224 137.84 119.224ZM2.176 167V144.6H16.8V147.896H6.272V154.04H15.84V157.24H6.272V163.704H16.8V167H2.176ZM20.58 167V151.128H24.196L24.548 153.272C25.06 152.504 25.732 151.896 26.564 151.448C27.4173 150.979 28.3987 150.744 29.508 150.744C31.9613 150.744 33.7 151.693 34.724 153.592C35.3 152.717 36.068 152.024 37.028 151.512C38.0093 151 39.076 150.744 40.228 150.744C42.2973 150.744 43.8867 151.363 44.996 152.6C46.1053 153.837 46.66 155.651 46.66 158.04V167H42.564V158.424C42.564 157.059 42.2973 156.013 41.764 155.288C41.252 154.563 40.452 154.2 39.364 154.2C38.2547 154.2 37.3587 154.605 36.676 155.416C36.0147 156.227 35.684 157.357 35.684 158.808V167H31.588V158.424C31.588 157.059 31.3213 156.013 30.788 155.288C30.2547 154.563 29.4333 154.2 28.324 154.2C27.236 154.2 26.3507 154.605 25.668 155.416C25.0067 156.227 24.676 157.357 24.676 158.808V167H20.58ZM56.0208 167.384C54.6554 167.384 53.5354 167.171 52.6608 166.744C51.7861 166.296 51.1354 165.709 50.7088 164.984C50.2821 164.259 50.0688 163.459 50.0688 162.584C50.0688 161.112 50.6448 159.917 51.7968 159C52.9488 158.083 54.6768 157.624 56.9808 157.624H61.0128V157.24C61.0128 156.152 60.7034 155.352 60.0848 154.84C59.4661 154.328 58.6981 154.072 57.7808 154.072C56.9488 154.072 56.2234 154.275 55.6048 154.68C54.9861 155.064 54.6021 155.64 54.4528 156.408H50.4528C50.5594 155.256 50.9434 154.253 51.6048 153.4C52.2874 152.547 53.1621 151.896 54.2288 151.448C55.2954 150.979 56.4901 150.744 57.8128 150.744C60.0741 150.744 61.8554 151.309 63.1568 152.44C64.4581 153.571 65.1088 155.171 65.1088 157.24V167H61.6208L61.2368 164.44C60.7674 165.293 60.1061 165.997 59.2528 166.552C58.4208 167.107 57.3434 167.384 56.0208 167.384ZM56.9488 164.184C58.1221 164.184 59.0288 163.8 59.6688 163.032C60.3301 162.264 60.7461 161.315 60.9168 160.184H57.4288C56.3408 160.184 55.5621 160.387 55.0928 160.792C54.6234 161.176 54.3888 161.656 54.3888 162.232C54.3888 162.851 54.6234 163.331 55.0928 163.672C55.5621 164.013 56.1808 164.184 56.9488 164.184ZM71.2255 148.664C70.4788 148.664 69.8602 148.44 69.3695 147.992C68.9002 147.544 68.6655 146.979 68.6655 146.296C68.6655 145.613 68.9002 145.059 69.3695 144.632C69.8602 144.184 70.4788 143.96 71.2255 143.96C71.9722 143.96 72.5802 144.184 73.0495 144.632C73.5402 145.059 73.7855 145.613 73.7855 146.296C73.7855 146.979 73.5402 147.544 73.0495 147.992C72.5802 148.44 71.9722 148.664 71.2255 148.664ZM69.1775 167V151.128H73.2735V167H69.1775ZM77.5488 167V143.96H81.6448V167H77.5488ZM87.59 167.224C86.8433 167.224 86.2247 166.989 85.734 166.52C85.2647 166.051 85.03 165.485 85.03 164.824C85.03 164.141 85.2647 163.565 85.734 163.096C86.2247 162.627 86.8433 162.392 87.59 162.392C88.3367 162.392 88.9447 162.627 89.414 163.096C89.9047 163.565 90.15 164.141 90.15 164.824C90.15 165.485 89.9047 166.051 89.414 166.52C88.9447 166.989 88.3367 167.224 87.59 167.224ZM87.59 155.576C86.8433 155.576 86.2247 155.341 85.734 154.872C85.2647 154.403 85.03 153.837 85.03 153.176C85.03 152.493 85.2647 151.917 85.734 151.448C86.2247 150.979 86.8433 150.744 87.59 150.744C88.3367 150.744 88.9447 150.979 89.414 151.448C89.9047 151.917 90.15 152.493 90.15 153.176C90.15 153.837 89.9047 154.403 89.414 154.872C88.9447 155.341 88.3367 155.576 87.59 155.576ZM95.34 167.224C94.5933 167.224 93.9747 166.989 93.484 166.52C93.0147 166.051 92.78 165.485 92.78 164.824C92.78 164.141 93.0147 163.565 93.484 163.096C93.9747 162.627 94.5933 162.392 95.34 162.392C96.0867 162.392 96.6947 162.627 97.164 163.096C97.6547 163.565 97.9 164.141 97.9 164.824C97.9 165.485 97.6547 166.051 97.164 166.52C96.6947 166.989 96.0867 167.224 95.34 167.224ZM103.028 167.224C102.281 167.224 101.662 166.989 101.172 166.52C100.702 166.051 100.468 165.485 100.468 164.824C100.468 164.141 100.702 163.565 101.172 163.096C101.662 162.627 102.281 162.392 103.028 162.392C103.774 162.392 104.382 162.627 104.852 163.096C105.342 163.565 105.588 164.141 105.588 164.824C105.588 165.485 105.342 166.051 104.852 166.52C104.382 166.989 103.774 167.224 103.028 167.224ZM110.715 167.224C109.968 167.224 109.35 166.989 108.859 166.52C108.39 166.051 108.155 165.485 108.155 164.824C108.155 164.141 108.39 163.565 108.859 163.096C109.35 162.627 109.968 162.392 110.715 162.392C111.462 162.392 112.07 162.627 112.539 163.096C113.03 163.565 113.275 164.141 113.275 164.824C113.275 165.485 113.03 166.051 112.539 166.52C112.07 166.989 111.462 167.224 110.715 167.224ZM2.176 215V192.6H6.272L16.8 208.376V192.6H20.896V215H16.8L6.272 199.256V215H2.176ZM32.7585 215.384C31.2225 215.384 29.8358 215.032 28.5985 214.328C27.3825 213.624 26.4118 212.653 25.6865 211.416C24.9825 210.157 24.6305 208.707 24.6305 207.064C24.6305 205.421 24.9932 203.981 25.7185 202.744C26.4438 201.485 27.4145 200.504 28.6305 199.8C29.8678 199.096 31.2545 198.744 32.7905 198.744C34.3052 198.744 35.6705 199.096 36.8865 199.8C38.1238 200.504 39.0945 201.485 39.7985 202.744C40.5238 203.981 40.8865 205.421 40.8865 207.064C40.8865 208.707 40.5238 210.157 39.7985 211.416C39.0945 212.653 38.1238 213.624 36.8865 214.328C35.6492 215.032 34.2732 215.384 32.7585 215.384ZM32.7585 211.832C33.8252 211.832 34.7532 211.437 35.5425 210.648C36.3318 209.837 36.7265 208.643 36.7265 207.064C36.7265 205.485 36.3318 204.301 35.5425 203.512C34.7532 202.701 33.8358 202.296 32.7905 202.296C31.7025 202.296 30.7638 202.701 29.9745 203.512C29.2065 204.301 28.8225 205.485 28.8225 207.064C28.8225 208.643 29.2065 209.837 29.9745 210.648C30.7638 211.437 31.6918 211.832 32.7585 211.832ZM46.3088 215.224C45.5621 215.224 44.9434 214.989 44.4528 214.52C43.9834 214.051 43.7488 213.485 43.7488 212.824C43.7488 212.141 43.9834 211.565 44.4528 211.096C44.9434 210.627 45.5621 210.392 46.3088 210.392C47.0554 210.392 47.6634 210.627 48.1328 211.096C48.6234 211.565 48.8688 212.141 48.8688 212.824C48.8688 213.485 48.6234 214.051 48.1328 214.52C47.6634 214.989 47.0554 215.224 46.3088 215.224ZM59.9573 215V192.6H64.0533V201.912H74.1013V192.6H78.1973V215H74.1013V205.24H64.0533V215H59.9573ZM87.927 215.384C86.5617 215.384 85.4417 215.171 84.567 214.744C83.6923 214.296 83.0417 213.709 82.615 212.984C82.1883 212.259 81.975 211.459 81.975 210.584C81.975 209.112 82.551 207.917 83.703 207C84.855 206.083 86.583 205.624 88.887 205.624H92.919V205.24C92.919 204.152 92.6097 203.352 91.991 202.84C91.3723 202.328 90.6043 202.072 89.687 202.072C88.855 202.072 88.1297 202.275 87.511 202.68C86.8923 203.064 86.5083 203.64 86.359 204.408H82.359C82.4657 203.256 82.8497 202.253 83.511 201.4C84.1937 200.547 85.0683 199.896 86.135 199.448C87.2017 198.979 88.3963 198.744 89.719 198.744C91.9803 198.744 93.7617 199.309 95.063 200.44C96.3643 201.571 97.015 203.171 97.015 205.24V215H93.527L93.143 212.44C92.6737 213.293 92.0123 213.997 91.159 214.552C90.327 215.107 89.2497 215.384 87.927 215.384ZM88.855 212.184C90.0283 212.184 90.935 211.8 91.575 211.032C92.2363 210.264 92.6523 209.315 92.823 208.184H89.335C88.247 208.184 87.4683 208.387 86.999 208.792C86.5297 209.176 86.295 209.656 86.295 210.232C86.295 210.851 86.5297 211.331 86.999 211.672C87.4683 212.013 88.087 212.184 88.855 212.184ZM100.924 215V199.128H104.54L104.86 201.816C105.35 200.877 106.054 200.131 106.972 199.576C107.91 199.021 109.009 198.744 110.268 198.744C112.23 198.744 113.756 199.363 114.844 200.6C115.932 201.837 116.476 203.651 116.476 206.04V215H112.38V206.424C112.38 205.059 112.102 204.013 111.548 203.288C110.993 202.563 110.129 202.2 108.956 202.2C107.804 202.2 106.854 202.605 106.108 203.416C105.382 204.227 105.02 205.357 105.02 206.808V215H100.924ZM127.689 215.384C126.195 215.384 124.862 215.021 123.689 214.296C122.515 213.571 121.587 212.579 120.905 211.32C120.222 210.061 119.881 208.632 119.881 207.032C119.881 205.432 120.222 204.013 120.905 202.776C121.587 201.517 122.515 200.536 123.689 199.832C124.862 199.107 126.195 198.744 127.689 198.744C128.883 198.744 129.929 198.968 130.825 199.416C131.721 199.864 132.446 200.493 133.001 201.304V191.96H137.097V215H133.449L133.001 212.728C132.489 213.432 131.806 214.051 130.953 214.584C130.121 215.117 129.033 215.384 127.689 215.384ZM128.553 211.8C129.875 211.8 130.953 211.363 131.785 210.488C132.638 209.592 133.065 208.451 133.065 207.064C133.065 205.677 132.638 204.547 131.785 203.672C130.953 202.776 129.875 202.328 128.553 202.328C127.251 202.328 126.174 202.765 125.321 203.64C124.467 204.515 124.041 205.645 124.041 207.032C124.041 208.419 124.467 209.56 125.321 210.456C126.174 211.352 127.251 211.8 128.553 211.8ZM141.268 222.04V199.128H144.916L145.364 201.4C145.876 200.696 146.548 200.077 147.38 199.544C148.233 199.011 149.332 198.744 150.676 198.744C152.169 198.744 153.502 199.107 154.676 199.832C155.849 200.557 156.777 201.549 157.46 202.808C158.142 204.067 158.484 205.496 158.484 207.096C158.484 208.696 158.142 210.125 157.46 211.384C156.777 212.621 155.849 213.603 154.676 214.328C153.502 215.032 152.169 215.384 150.676 215.384C149.481 215.384 148.436 215.16 147.54 214.712C146.644 214.264 145.918 213.635 145.364 212.824V222.04H141.268ZM149.812 211.8C151.113 211.8 152.19 211.363 153.044 210.488C153.897 209.613 154.324 208.483 154.324 207.096C154.324 205.709 153.897 204.568 153.044 203.672C152.19 202.776 151.113 202.328 149.812 202.328C148.489 202.328 147.401 202.776 146.548 203.672C145.716 204.547 145.3 205.677 145.3 207.064C145.3 208.451 145.716 209.592 146.548 210.488C147.401 211.363 148.489 211.8 149.812 211.8ZM162.143 215V191.96H166.239V201.56C166.772 200.685 167.487 200.003 168.383 199.512C169.3 199 170.345 198.744 171.519 198.744C173.481 198.744 174.996 199.363 176.062 200.6C177.15 201.837 177.694 203.651 177.694 206.04V215H173.631V206.424C173.631 205.059 173.353 204.013 172.799 203.288C172.265 202.563 171.412 202.2 170.239 202.2C169.087 202.2 168.127 202.605 167.359 203.416C166.612 204.227 166.239 205.357 166.239 206.808V215H162.143ZM189.227 215.384C187.691 215.384 186.305 215.032 185.067 214.328C183.851 213.624 182.881 212.653 182.155 211.416C181.451 210.157 181.099 208.707 181.099 207.064C181.099 205.421 181.462 203.981 182.187 202.744C182.913 201.485 183.883 200.504 185.099 199.8C186.337 199.096 187.723 198.744 189.259 198.744C190.774 198.744 192.139 199.096 193.355 199.8C194.593 200.504 195.563 201.485 196.267 202.744C196.993 203.981 197.355 205.421 197.355 207.064C197.355 208.707 196.993 210.157 196.267 211.416C195.563 212.653 194.593 213.624 193.355 214.328C192.118 215.032 190.742 215.384 189.227 215.384ZM189.227 211.832C190.294 211.832 191.222 211.437 192.011 210.648C192.801 209.837 193.195 208.643 193.195 207.064C193.195 205.485 192.801 204.301 192.011 203.512C191.222 202.701 190.305 202.296 189.259 202.296C188.171 202.296 187.233 202.701 186.443 203.512C185.675 204.301 185.291 205.485 185.291 207.064C185.291 208.643 185.675 209.837 186.443 210.648C187.233 211.437 188.161 211.832 189.227 211.832ZM201.018 215V199.128H204.634L204.954 201.816C205.444 200.877 206.148 200.131 207.066 199.576C208.004 199.021 209.103 198.744 210.362 198.744C212.324 198.744 213.85 199.363 214.938 200.6C216.025 201.837 216.569 203.651 216.569 206.04V215H212.474V206.424C212.474 205.059 212.196 204.013 211.642 203.288C211.087 202.563 210.223 202.2 209.05 202.2C207.898 202.2 206.948 202.605 206.202 203.416C205.476 204.227 205.114 205.357 205.114 206.808V215H201.018ZM228.198 215.384C226.598 215.384 225.18 215.043 223.942 214.36C222.705 213.677 221.734 212.717 221.03 211.48C220.326 210.243 219.974 208.813 219.974 207.192C219.974 205.549 220.316 204.088 220.998 202.808C221.702 201.528 222.662 200.536 223.878 199.832C225.116 199.107 226.566 198.744 228.23 198.744C229.788 198.744 231.164 199.085 232.358 199.768C233.553 200.451 234.481 201.389 235.142 202.584C235.825 203.757 236.166 205.069 236.166 206.52C236.166 206.755 236.156 207 236.134 207.256C236.134 207.512 236.124 207.779 236.102 208.056H224.038C224.124 209.293 224.55 210.264 225.318 210.968C226.108 211.672 227.057 212.024 228.166 212.024C228.998 212.024 229.692 211.843 230.246 211.48C230.822 211.096 231.249 210.605 231.526 210.008H235.686C235.388 211.011 234.886 211.928 234.182 212.76C233.5 213.571 232.646 214.211 231.622 214.68C230.62 215.149 229.478 215.384 228.198 215.384ZM228.23 202.072C227.228 202.072 226.342 202.36 225.574 202.936C224.806 203.491 224.316 204.344 224.102 205.496H232.006C231.942 204.451 231.558 203.619 230.854 203C230.15 202.381 229.276 202.072 228.23 202.072ZM241.371 215.224C240.625 215.224 240.006 214.989 239.515 214.52C239.046 214.051 238.811 213.485 238.811 212.824C238.811 212.141 239.046 211.565 239.515 211.096C240.006 210.627 240.625 210.392 241.371 210.392C242.118 210.392 242.726 210.627 243.195 211.096C243.686 211.565 243.931 212.141 243.931 212.824C243.931 213.485 243.686 214.051 243.195 214.52C242.726 214.989 242.118 215.224 241.371 215.224ZM241.371 203.576C240.625 203.576 240.006 203.341 239.515 202.872C239.046 202.403 238.811 201.837 238.811 201.176C238.811 200.493 239.046 199.917 239.515 199.448C240.006 198.979 240.625 198.744 241.371 198.744C242.118 198.744 242.726 198.979 243.195 199.448C243.686 199.917 243.931 200.493 243.931 201.176C243.931 201.837 243.686 202.403 243.195 202.872C242.726 203.341 242.118 203.576 241.371 203.576ZM249.121 215.224C248.375 215.224 247.756 214.989 247.265 214.52C246.796 214.051 246.561 213.485 246.561 212.824C246.561 212.141 246.796 211.565 247.265 211.096C247.756 210.627 248.375 210.392 249.121 210.392C249.868 210.392 250.476 210.627 250.945 211.096C251.436 211.565 251.681 212.141 251.681 212.824C251.681 213.485 251.436 214.051 250.945 214.52C250.476 214.989 249.868 215.224 249.121 215.224ZM256.809 215.224C256.062 215.224 255.443 214.989 254.953 214.52C254.483 214.051 254.249 213.485 254.249 212.824C254.249 212.141 254.483 211.565 254.953 211.096C255.443 210.627 256.062 210.392 256.809 210.392C257.555 210.392 258.163 210.627 258.633 211.096C259.123 211.565 259.369 212.141 259.369 212.824C259.369 213.485 259.123 214.051 258.633 214.52C258.163 214.989 257.555 215.224 256.809 215.224ZM264.496 215.224C263.75 215.224 263.131 214.989 262.64 214.52C262.171 214.051 261.936 213.485 261.936 212.824C261.936 212.141 262.171 211.565 262.64 211.096C263.131 210.627 263.75 210.392 264.496 210.392C265.243 210.392 265.851 210.627 266.32 211.096C266.811 211.565 267.056 212.141 267.056 212.824C267.056 213.485 266.811 214.051 266.32 214.52C265.851 214.989 265.243 215.224 264.496 215.224Z" fill="black"/>
</svg>
